<svg xmlns="http://www.w3.org/2000/svg" width="108.888" height="130.341" viewBox="0 0 108.888 130.341">
  <path id="Icon_open-question-mark" data-name="Icon open-question-mark" d="M34.507,0C22.632,0,13.831,3.632,8.242,9.22S.7,21.794,0,27.1l13.97,1.816c.559-3.493,1.676-6.985,4.331-9.64s6.845-5.309,16.206-5.309c9.22,0,14.25,2.235,17.044,4.75a11.678,11.678,0,0,1,3.912,9.22c0,11.6-4.75,14.809-11.735,20.956S27.522,63.984,27.522,80.329v3.493h13.97V80.329c0-11.6,4.331-14.809,11.316-20.956S69.433,44.286,69.433,27.941a26.839,26.839,0,0,0-8.242-19.7C55.183,2.794,46.242,0,34.507,0ZM27.522,97.792v13.97h13.97V97.792Z" transform="matrix(0.914, 0.407, -0.407, 0.914, 45.458, 0)"/>
</svg>
